<mxfile host="Electron" modified="2024-07-10T00:13:27.317Z" agent="Mozilla/5.0 (X11; Linux x86_64) AppleWebKit/537.36 (KHTML, like Gecko) draw.io/24.6.4 Chrome/124.0.6367.207 Electron/30.0.6 Safari/537.36" etag="cWZUq6D_nbjTBbH1cCbl" version="24.6.4" type="device">
  <diagram name="Page-1" id="boPcjglz-a8_orKfaUgm">
    <mxGraphModel dx="844" dy="493" grid="1" gridSize="10" guides="1" tooltips="1" connect="1" arrows="1" fold="1" page="1" pageScale="1" pageWidth="850" pageHeight="1100" math="0" shadow="0">
      <root>
        <mxCell id="0" />
        <mxCell id="1" parent="0" />
        <mxCell id="VyBv25yWfUpxDiORW1tx-29" value="" style="shape=table;startSize=0;container=1;collapsible=0;childLayout=tableLayout;" vertex="1" parent="1">
          <mxGeometry x="390" y="209" width="170" height="341" as="geometry" />
        </mxCell>
        <mxCell id="VyBv25yWfUpxDiORW1tx-30" value="" style="shape=tableRow;horizontal=0;startSize=0;swimlaneHead=0;swimlaneBody=0;strokeColor=inherit;top=0;left=0;bottom=0;right=0;collapsible=0;dropTarget=0;fillColor=none;points=[[0,0.5],[1,0.5]];portConstraint=eastwest;" vertex="1" parent="VyBv25yWfUpxDiORW1tx-29">
          <mxGeometry width="170" height="88" as="geometry" />
        </mxCell>
        <mxCell id="VyBv25yWfUpxDiORW1tx-31" value="&lt;span style=&quot;font-size: 24px;&quot;&gt;struct page*&lt;/span&gt;" style="shape=partialRectangle;html=1;whiteSpace=wrap;connectable=0;strokeColor=inherit;overflow=hidden;fillColor=none;top=0;left=0;bottom=0;right=0;pointerEvents=1;" vertex="1" parent="VyBv25yWfUpxDiORW1tx-30">
          <mxGeometry width="170" height="88" as="geometry">
            <mxRectangle width="170" height="88" as="alternateBounds" />
          </mxGeometry>
        </mxCell>
        <mxCell id="VyBv25yWfUpxDiORW1tx-32" value="" style="shape=tableRow;horizontal=0;startSize=0;swimlaneHead=0;swimlaneBody=0;strokeColor=inherit;top=0;left=0;bottom=0;right=0;collapsible=0;dropTarget=0;fillColor=none;points=[[0,0.5],[1,0.5]];portConstraint=eastwest;" vertex="1" parent="VyBv25yWfUpxDiORW1tx-29">
          <mxGeometry y="88" width="170" height="90" as="geometry" />
        </mxCell>
        <mxCell id="VyBv25yWfUpxDiORW1tx-33" value="&lt;span style=&quot;font-size: 24px;&quot;&gt;struct page*&lt;/span&gt;" style="shape=partialRectangle;html=1;whiteSpace=wrap;connectable=0;strokeColor=inherit;overflow=hidden;fillColor=none;top=0;left=0;bottom=0;right=0;pointerEvents=1;container=1;" vertex="1" parent="VyBv25yWfUpxDiORW1tx-32">
          <mxGeometry width="170" height="90" as="geometry">
            <mxRectangle width="170" height="90" as="alternateBounds" />
          </mxGeometry>
        </mxCell>
        <mxCell id="VyBv25yWfUpxDiORW1tx-34" value="" style="shape=tableRow;horizontal=0;startSize=0;swimlaneHead=0;swimlaneBody=0;strokeColor=inherit;top=0;left=0;bottom=0;right=0;collapsible=0;dropTarget=0;fillColor=none;points=[[0,0.5],[1,0.5]];portConstraint=eastwest;" vertex="1" parent="VyBv25yWfUpxDiORW1tx-29">
          <mxGeometry y="178" width="170" height="86" as="geometry" />
        </mxCell>
        <mxCell id="VyBv25yWfUpxDiORW1tx-35" value="&lt;span style=&quot;font-size: 24px;&quot;&gt;struct page*&lt;/span&gt;" style="shape=partialRectangle;html=1;whiteSpace=wrap;connectable=0;strokeColor=inherit;overflow=hidden;fillColor=none;top=0;left=0;bottom=0;right=0;pointerEvents=1;" vertex="1" parent="VyBv25yWfUpxDiORW1tx-34">
          <mxGeometry width="170" height="86" as="geometry">
            <mxRectangle width="170" height="86" as="alternateBounds" />
          </mxGeometry>
        </mxCell>
        <mxCell id="VyBv25yWfUpxDiORW1tx-42" value="" style="shape=tableRow;horizontal=0;startSize=0;swimlaneHead=0;swimlaneBody=0;strokeColor=inherit;top=0;left=0;bottom=0;right=0;collapsible=0;dropTarget=0;fillColor=none;points=[[0,0.5],[1,0.5]];portConstraint=eastwest;" vertex="1" parent="VyBv25yWfUpxDiORW1tx-29">
          <mxGeometry y="264" width="170" height="77" as="geometry" />
        </mxCell>
        <mxCell id="VyBv25yWfUpxDiORW1tx-43" value="&lt;font style=&quot;font-size: 24px;&quot;&gt;.....&lt;/font&gt;" style="shape=partialRectangle;html=1;whiteSpace=wrap;connectable=0;strokeColor=inherit;overflow=hidden;fillColor=none;top=0;left=0;bottom=0;right=0;pointerEvents=1;container=1;" vertex="1" parent="VyBv25yWfUpxDiORW1tx-42">
          <mxGeometry width="170" height="77" as="geometry">
            <mxRectangle width="170" height="77" as="alternateBounds" />
          </mxGeometry>
        </mxCell>
        <mxCell id="VyBv25yWfUpxDiORW1tx-46" value="&lt;font style=&quot;font-size: 24px;&quot;&gt;kmalloc 1k&lt;/font&gt;" style="text;strokeColor=none;align=center;fillColor=none;html=1;verticalAlign=middle;whiteSpace=wrap;rounded=0;" vertex="1" parent="1">
          <mxGeometry x="390" y="179" width="160" height="30" as="geometry" />
        </mxCell>
        <mxCell id="VyBv25yWfUpxDiORW1tx-47" value="" style="shape=table;startSize=0;container=1;collapsible=0;childLayout=tableLayout;" vertex="1" parent="1">
          <mxGeometry x="170" y="257" width="140" height="200" as="geometry" />
        </mxCell>
        <mxCell id="VyBv25yWfUpxDiORW1tx-48" value="" style="shape=tableRow;horizontal=0;startSize=0;swimlaneHead=0;swimlaneBody=0;strokeColor=inherit;top=0;left=0;bottom=0;right=0;collapsible=0;dropTarget=0;fillColor=none;points=[[0,0.5],[1,0.5]];portConstraint=eastwest;" vertex="1" parent="VyBv25yWfUpxDiORW1tx-47">
          <mxGeometry width="140" height="100" as="geometry" />
        </mxCell>
        <mxCell id="VyBv25yWfUpxDiORW1tx-49" value="&lt;font style=&quot;font-size: 24px;&quot;&gt;pagecount&lt;/font&gt;" style="shape=partialRectangle;html=1;whiteSpace=wrap;connectable=0;strokeColor=inherit;overflow=hidden;fillColor=none;top=0;left=0;bottom=0;right=0;pointerEvents=1;" vertex="1" parent="VyBv25yWfUpxDiORW1tx-48">
          <mxGeometry width="140" height="100" as="geometry">
            <mxRectangle width="140" height="100" as="alternateBounds" />
          </mxGeometry>
        </mxCell>
        <mxCell id="VyBv25yWfUpxDiORW1tx-50" value="" style="shape=tableRow;horizontal=0;startSize=0;swimlaneHead=0;swimlaneBody=0;strokeColor=inherit;top=0;left=0;bottom=0;right=0;collapsible=0;dropTarget=0;fillColor=none;points=[[0,0.5],[1,0.5]];portConstraint=eastwest;" vertex="1" parent="VyBv25yWfUpxDiORW1tx-47">
          <mxGeometry y="100" width="140" height="100" as="geometry" />
        </mxCell>
        <mxCell id="VyBv25yWfUpxDiORW1tx-51" value="&lt;font style=&quot;font-size: 24px;&quot;&gt;pages **&lt;/font&gt;" style="shape=partialRectangle;html=1;whiteSpace=wrap;connectable=0;strokeColor=inherit;overflow=hidden;fillColor=none;top=0;left=0;bottom=0;right=0;pointerEvents=1;" vertex="1" parent="VyBv25yWfUpxDiORW1tx-50">
          <mxGeometry width="140" height="100" as="geometry">
            <mxRectangle width="140" height="100" as="alternateBounds" />
          </mxGeometry>
        </mxCell>
        <mxCell id="VyBv25yWfUpxDiORW1tx-53" value="&lt;font style=&quot;font-size: 24px;&quot;&gt;SBUF&lt;/font&gt;" style="text;strokeColor=none;align=center;fillColor=none;html=1;verticalAlign=middle;whiteSpace=wrap;rounded=0;" vertex="1" parent="1">
          <mxGeometry x="210" y="227" width="60" height="30" as="geometry" />
        </mxCell>
        <mxCell id="VyBv25yWfUpxDiORW1tx-54" style="edgeStyle=orthogonalEdgeStyle;rounded=0;orthogonalLoop=1;jettySize=auto;html=1;entryX=-0.01;entryY=0.567;entryDx=0;entryDy=0;entryPerimeter=0;" edge="1" parent="1" source="VyBv25yWfUpxDiORW1tx-50" target="VyBv25yWfUpxDiORW1tx-32">
          <mxGeometry relative="1" as="geometry" />
        </mxCell>
        <mxCell id="VyBv25yWfUpxDiORW1tx-86" value="" style="shape=table;startSize=0;container=1;collapsible=0;childLayout=tableLayout;" vertex="1" parent="1">
          <mxGeometry x="650" y="210" width="180" height="340" as="geometry" />
        </mxCell>
        <mxCell id="VyBv25yWfUpxDiORW1tx-87" value="" style="shape=tableRow;horizontal=0;startSize=0;swimlaneHead=0;swimlaneBody=0;strokeColor=inherit;top=0;left=0;bottom=0;right=0;collapsible=0;dropTarget=0;fillColor=none;points=[[0,0.5],[1,0.5]];portConstraint=eastwest;" vertex="1" parent="VyBv25yWfUpxDiORW1tx-86">
          <mxGeometry width="180" height="114" as="geometry" />
        </mxCell>
        <mxCell id="VyBv25yWfUpxDiORW1tx-88" value="&lt;font style=&quot;font-size: 24px;&quot;&gt;struct page&lt;/font&gt;" style="shape=partialRectangle;html=1;whiteSpace=wrap;connectable=0;strokeColor=inherit;overflow=hidden;fillColor=none;top=0;left=0;bottom=0;right=0;pointerEvents=1;" vertex="1" parent="VyBv25yWfUpxDiORW1tx-87">
          <mxGeometry width="180" height="114" as="geometry">
            <mxRectangle width="180" height="114" as="alternateBounds" />
          </mxGeometry>
        </mxCell>
        <mxCell id="VyBv25yWfUpxDiORW1tx-89" value="" style="shape=tableRow;horizontal=0;startSize=0;swimlaneHead=0;swimlaneBody=0;strokeColor=inherit;top=0;left=0;bottom=0;right=0;collapsible=0;dropTarget=0;fillColor=none;points=[[0,0.5],[1,0.5]];portConstraint=eastwest;" vertex="1" parent="VyBv25yWfUpxDiORW1tx-86">
          <mxGeometry y="114" width="180" height="112" as="geometry" />
        </mxCell>
        <mxCell id="VyBv25yWfUpxDiORW1tx-90" value="&lt;span style=&quot;color: rgb(240, 240, 240); font-family: Helvetica; font-size: 24px; font-style: normal; font-variant-ligatures: normal; font-variant-caps: normal; font-weight: 400; letter-spacing: normal; orphans: 2; text-align: center; text-indent: 0px; text-transform: none; widows: 2; word-spacing: 0px; -webkit-text-stroke-width: 0px; white-space: normal; background-color: rgb(27, 29, 30); text-decoration-thickness: initial; text-decoration-style: initial; text-decoration-color: initial; display: inline !important; float: none;&quot;&gt;struct page&lt;/span&gt;" style="shape=partialRectangle;html=1;whiteSpace=wrap;connectable=0;strokeColor=inherit;overflow=hidden;fillColor=none;top=0;left=0;bottom=0;right=0;pointerEvents=1;" vertex="1" parent="VyBv25yWfUpxDiORW1tx-89">
          <mxGeometry width="180" height="112" as="geometry">
            <mxRectangle width="180" height="112" as="alternateBounds" />
          </mxGeometry>
        </mxCell>
        <mxCell id="VyBv25yWfUpxDiORW1tx-91" value="" style="shape=tableRow;horizontal=0;startSize=0;swimlaneHead=0;swimlaneBody=0;strokeColor=inherit;top=0;left=0;bottom=0;right=0;collapsible=0;dropTarget=0;fillColor=none;points=[[0,0.5],[1,0.5]];portConstraint=eastwest;" vertex="1" parent="VyBv25yWfUpxDiORW1tx-86">
          <mxGeometry y="226" width="180" height="114" as="geometry" />
        </mxCell>
        <mxCell id="VyBv25yWfUpxDiORW1tx-92" value="&lt;span style=&quot;color: rgb(240, 240, 240); font-family: Helvetica; font-size: 24px; font-style: normal; font-variant-ligatures: normal; font-variant-caps: normal; font-weight: 400; letter-spacing: normal; orphans: 2; text-align: center; text-indent: 0px; text-transform: none; widows: 2; word-spacing: 0px; -webkit-text-stroke-width: 0px; white-space: normal; background-color: rgb(27, 29, 30); text-decoration-thickness: initial; text-decoration-style: initial; text-decoration-color: initial; display: inline !important; float: none;&quot;&gt;struct page&lt;/span&gt;" style="shape=partialRectangle;html=1;whiteSpace=wrap;connectable=0;strokeColor=inherit;overflow=hidden;fillColor=none;top=0;left=0;bottom=0;right=0;pointerEvents=1;" vertex="1" parent="VyBv25yWfUpxDiORW1tx-91">
          <mxGeometry width="180" height="114" as="geometry">
            <mxRectangle width="180" height="114" as="alternateBounds" />
          </mxGeometry>
        </mxCell>
        <mxCell id="VyBv25yWfUpxDiORW1tx-94" style="edgeStyle=orthogonalEdgeStyle;rounded=0;orthogonalLoop=1;jettySize=auto;html=1;entryX=-0.016;entryY=0.015;entryDx=0;entryDy=0;entryPerimeter=0;" edge="1" parent="1" source="VyBv25yWfUpxDiORW1tx-30" target="VyBv25yWfUpxDiORW1tx-87">
          <mxGeometry relative="1" as="geometry">
            <mxPoint x="640" y="210" as="targetPoint" />
          </mxGeometry>
        </mxCell>
        <mxCell id="VyBv25yWfUpxDiORW1tx-95" style="edgeStyle=orthogonalEdgeStyle;rounded=0;orthogonalLoop=1;jettySize=auto;html=1;entryX=-0.022;entryY=0.011;entryDx=0;entryDy=0;entryPerimeter=0;" edge="1" parent="1" source="VyBv25yWfUpxDiORW1tx-32" target="VyBv25yWfUpxDiORW1tx-89">
          <mxGeometry relative="1" as="geometry" />
        </mxCell>
        <mxCell id="VyBv25yWfUpxDiORW1tx-96" style="edgeStyle=orthogonalEdgeStyle;rounded=0;orthogonalLoop=1;jettySize=auto;html=1;entryX=-0.019;entryY=0.019;entryDx=0;entryDy=0;entryPerimeter=0;" edge="1" parent="1" source="VyBv25yWfUpxDiORW1tx-34" target="VyBv25yWfUpxDiORW1tx-91">
          <mxGeometry relative="1" as="geometry" />
        </mxCell>
      </root>
    </mxGraphModel>
  </diagram>
</mxfile>
